HIERARCHY
ROOT root
{
	OFFSET 0.000000 0.000000 0.000000
	CHANNELS 6 Xposition Yposition Zposition Zrotation Yrotation Xrotation
	JOINT lhip
	{
		OFFSET 0.058581 -0.082280 -0.017664
		CHANNELS 3 Zrotation Yrotation Xrotation
		JOINT lknee
		{
			OFFSET 0.043451 -0.386469 0.008037
			CHANNELS 3 Zrotation Yrotation Xrotation
			JOINT lankle
			{
				OFFSET -0.014790 -0.426874 -0.037428
				CHANNELS 3 Zrotation Yrotation Xrotation
				JOINT ltoe
				{
					OFFSET 0.041054 -0.060286 0.122042
					CHANNELS 3 Zrotation Yrotation Xrotation
					End Site
					{
						OFFSET 0.000000 0.000000 0.000000
					}
				}
			}
		}
	}
	JOINT rhip
	{
		OFFSET -0.060310 -0.090513 -0.013543
		CHANNELS 3 Zrotation Yrotation Xrotation
		JOINT rknee
		{
			OFFSET -0.043257 -0.383688 -0.004843
			CHANNELS 3 Zrotation Yrotation Xrotation
			JOINT rankle
			{
				OFFSET 0.019056 -0.420046 -0.034562
				CHANNELS 3 Zrotation Yrotation Xrotation
				JOINT rtoe
				{
					OFFSET -0.034840 -0.062106 0.130323
					CHANNELS 3 Zrotation Yrotation Xrotation
					End Site
					{
						OFFSET 0.000000 0.000000 0.000000
					}
				}
			}
		}
	}
	JOINT lowerback
	{
		OFFSET 0.004439 0.124404 -0.038385
		CHANNELS 3 Zrotation Yrotation Xrotation
		JOINT upperback
		{
			OFFSET 0.004488 0.137956 0.026820
			CHANNELS 3 Zrotation Yrotation Xrotation
			JOINT chest
			{
				OFFSET -0.002265 0.056032 0.002855
				CHANNELS 3 Zrotation Yrotation Xrotation
				JOINT lowerneck
				{
					OFFSET -0.013390 0.211636 -0.033468
					CHANNELS 3 Zrotation Yrotation Xrotation
					JOINT upperneck
					{
						OFFSET 0.010113 0.088937 0.050410
						CHANNELS 3 Zrotation Yrotation Xrotation
						End Site
						{
							OFFSET 0.000000 0.000000 0.000000
						}
					}
				}
				JOINT lclavicle
				{
					OFFSET 0.071702 0.114000 -0.018898
					CHANNELS 3 Zrotation Yrotation Xrotation
					JOINT lshoulder
					{
						OFFSET 0.122921 0.045205 -0.019046
						CHANNELS 3 Zrotation Yrotation Xrotation
						JOINT lelbow
						{
							OFFSET 0.255332 -0.015649 -0.022946
							CHANNELS 3 Zrotation Yrotation Xrotation
							JOINT lwrist
							{
								OFFSET 0.265709 0.012698 -0.007375
								CHANNELS 3 Zrotation Yrotation Xrotation
								End Site
								{
									OFFSET 0.000000 0.000000 0.000000
								}
							}
						}
					}
				}
				JOINT rclavicle
				{
					OFFSET -0.082954 0.112472 -0.023707
					CHANNELS 3 Zrotation Yrotation Xrotation
					JOINT rshoulder
					{
						OFFSET -0.113228 0.046853 -0.008472
						CHANNELS 3 Zrotation Yrotation Xrotation
						JOINT relbow
						{
							OFFSET -0.260127 -0.014369 -0.031269
							CHANNELS 3 Zrotation Yrotation Xrotation
							JOINT rwrist
							{
								OFFSET -0.269108 0.006794 -0.006027
								CHANNELS 3 Zrotation Yrotation Xrotation
								End Site
								{
									OFFSET 0.000000 0.000000 0.000000
								}
							}
						}
					}
				}
			}
		}
	}
}
MOTION
Frames: 11
Frame Time: 0.033333
0.357624 0.168003 1.000349 85.238139 -0.460380 91.451515 3.700467 4.742929 4.204148 -3.475177 1.663728 -6.713706 1.128580 8.003515 -2.705565 0.000000 -0.000000 0.000000 -6.533873 -4.055126 0.033351 1.012667 -3.743279 -0.199883 6.518956 -2.942566 -4.172258 0.000000 -0.000000 0.000000 -7.482362 4.725565 -14.006825 2.325964 -2.620208 19.036361 -1.230011 4.392592 -7.870679 0.648551 -1.881684 14.037090 9.605497 -2.811688 4.127705 -10.195931 -7.468678 -3.644709 -51.282254 -23.704779 24.364982 114.231735 -80.707401 -107.310734 6.670732 -13.629941 -29.199139 12.448046 15.536799 3.135351 47.280477 27.392544 16.526769 -163.073039 87.828894 -171.598360 -6.162497 11.164772 -34.127495 
0.356682 0.167795 1.000343 84.873344 -0.263582 91.494827 3.873823 4.777482 4.097013 -3.414600 1.827591 -6.622841 1.173623 8.210451 -2.663583 0.000000 -0.000000 0.000000 -6.303016 -4.038066 -0.114526 1.037647 -3.295196 -0.322019 6.611121 -3.149514 -4.063141 0.000000 -0.000000 0.000000 -7.950783 4.756829 -13.597231 2.341504 -2.496100 18.539525 -1.156981 4.392674 -7.597783 0.167406 -2.862367 14.306123 9.996901 -3.760643 4.646439 -9.961165 -7.360137 -3.669813 -51.078072 -23.759286 24.866008 112.400930 -80.974397 -106.232926 7.114290 -12.280733 -29.758252 12.302788 14.938939 2.985986 46.122487 26.272821 16.131176 -163.857031 86.864101 -173.056653 -6.636009 11.022529 -35.148088 
0.355818 0.168054 1.000299 84.769907 -0.039475 91.463857 4.130448 4.781071 4.033144 -3.413488 1.848448 -6.519760 1.104827 8.371975 -2.677713 0.000000 -0.000000 0.000000 -6.056059 -4.095048 -0.215225 1.043987 -2.942922 -0.269916 6.707771 -3.369310 -3.999470 0.000000 -0.000000 0.000000 -8.255863 4.734342 -13.080481 2.215341 -2.448148 17.960882 -1.108782 4.399947 -7.151818 -0.497911 -3.907994 14.628088 10.609474 -4.946886 4.874255 -9.960593 -7.192319 -3.810564 -50.458020 -23.889658 25.436554 108.233744 -82.361369 -103.070972 7.171255 -12.330149 -29.310209 12.237188 14.092177 2.574159 43.528492 24.338532 15.067872 -174.898020 86.262660 175.088324 -4.749340 11.545564 -35.788972 
0.355143 0.168971 1.000011 85.162879 0.088481 91.243506 4.310209 4.785444 4.034969 -3.387986 1.392123 -6.310913 0.950387 8.580594 -2.740270 0.000000 -0.000000 0.000000 -5.934031 -4.279340 -0.054842 1.043920 -2.621526 -0.157819 6.654417 -3.829629 -4.008587 0.000000 -0.000000 0.000000 -8.767957 4.733749 -12.509980 2.173181 -2.487888 18.036942 -0.997497 4.251343 -7.039012 -1.666088 -5.365363 14.879049 11.529111 -5.847492 4.975957 -10.338184 -7.643794 -3.884804 -49.794398 -24.017217 26.449797 97.568540 -84.111565 -93.998112 7.354385 -12.036665 -28.689006 12.049474 13.209255 1.969672 39.142014 21.548442 13.554106 167.640209 85.909442 156.518935 -3.851057 12.053366 -34.435044 
0.354300 0.170384 0.999661 86.083078 0.134415 90.982552 4.415864 4.660946 3.914051 -3.360457 0.638445 -5.940349 0.773893 8.707188 -2.911111 0.000000 -0.000000 0.000000 -5.914213 -4.689984 0.210073 1.058060 -2.438475 0.016130 6.531947 -4.482563 -4.097104 0.000000 -0.000000 0.000000 -9.255424 4.582048 -11.859036 1.862742 -2.786768 18.285625 -0.957950 4.253661 -6.866499 -3.050115 -6.974510 15.063558 12.823160 -6.539764 4.643463 -11.065941 -8.502951 -4.068623 -48.976410 -24.475511 27.581338 72.852615 -86.021791 -71.163230 7.166920 -12.050950 -27.552158 11.656103 12.323079 1.332432 33.764489 18.278320 11.694949 147.305841 85.390718 134.767384 -2.740061 12.528464 -32.459548 
0.352831 0.172147 0.999054 87.312383 0.210898 90.930605 4.611325 4.559673 3.479825 -3.423850 -0.266373 -5.568653 0.387541 8.686346 -3.011682 0.000000 -0.000000 0.000000 -5.875555 -5.169317 0.264570 1.120316 -2.468107 0.201015 6.354746 -5.176758 -4.213540 0.000000 -0.000000 0.000000 -9.630815 4.384637 -11.240030 1.416801 -3.165563 18.832083 -1.006232 4.164102 -7.029585 -4.490919 -8.748325 15.209535 14.221790 -6.948094 4.154709 -11.957795 -9.856827 -4.102107 -48.506383 -25.142506 28.509007 26.203512 -86.541449 -25.319468 7.070725 -12.322955 -24.544148 10.939906 11.591179 0.846063 27.577375 15.177200 9.276578 125.492628 84.352193 111.936812 -2.026435 13.376549 -28.164897 
0.351759 0.173796 0.998661 88.566855 0.376511 90.928530 4.889114 4.484307 3.096741 -3.444212 -1.139131 -5.338850 -0.081623 8.520553 -3.012918 0.000000 -0.000000 0.000000 -5.698527 -5.640706 0.390809 1.134187 -2.530581 0.221333 6.306515 -5.890514 -4.226264 0.000000 -0.000000 0.000000 -9.851302 4.112229 -10.744337 0.841593 -3.507603 19.146012 -1.130045 3.914241 -6.862959 -5.425284 -10.410294 15.422018 15.427659 -7.053420 3.672550 -12.562186 -11.441188 -4.117158 -48.694623 -25.996574 29.515274 -6.477348 -84.849104 7.925025 6.730357 -13.230023 -21.989850 9.272089 10.902921 0.108652 23.005035 12.715855 7.307371 112.529921 83.965090 100.040874 -1.572111 14.122261 -24.982942 
0.350410 0.175371 0.998486 89.723203 0.590610 91.071768 5.160862 4.332427 2.653175 -3.432945 -1.832542 -5.251354 -0.507335 8.323368 -2.973763 0.000000 -0.000000 0.000000 -5.431825 -6.047569 0.370806 1.129404 -2.653493 0.184086 6.234211 -6.506937 -4.218223 0.000000 -0.000000 0.000000 -9.956777 3.674490 -10.228498 0.088261 -3.998578 19.058248 -1.237616 3.721173 -6.698253 -5.951784 -11.863698 15.901107 16.347640 -6.720402 3.395391 -12.918476 -13.366173 -4.125032 -49.238141 -26.681657 30.424014 -18.878495 -82.573998 20.898723 5.631511 -14.324218 -19.828682 6.634959 10.796470 -0.736934 19.096222 10.975439 5.015433 101.578918 83.394881 89.589749 -0.416845 14.855811 -22.506417 
0.349158 0.176970 0.998427 90.452233 0.818337 91.367553 5.395809 4.319469 2.196219 -3.416820 -2.272318 -5.304999 -0.953732 8.156004 -2.921676 0.000000 -0.000000 0.000000 -5.159475 -6.334592 0.124544 1.108740 -2.645264 0.098717 6.283697 -6.946608 -4.149372 0.000000 -0.000000 0.000000 -9.815018 3.206643 -9.660163 -0.667847 -4.440519 18.258031 -1.382611 3.603182 -6.539265 -6.703870 -13.260880 16.679940 16.998427 -5.925281 3.719007 -13.260638 -15.415185 -4.245353 -50.096534 -27.145277 31.500814 -24.283865 -80.305478 27.279006 4.626854 -15.427580 -18.038098 3.807467 11.283274 -1.595194 14.253327 10.113062 2.891153 95.932663 82.716045 85.185295 -0.931056 15.785781 -18.272901 
0.348143 0.178157 0.998689 90.738675 1.091393 91.682534 5.713123 4.239901 1.855558 -3.466879 -2.218511 -5.433818 -1.448940 7.864444 -2.823595 0.000000 -0.000000 0.000000 -4.874680 -6.581624 -0.206203 1.111089 -2.697044 0.063321 6.512040 -6.933342 -4.042914 0.000000 -0.000000 0.000000 -9.679748 2.652605 -9.199308 -1.455007 -4.821624 17.185077 -1.471746 3.658023 -6.133111 -6.754279 -14.407387 17.407376 17.521172 -4.939062 4.240625 -12.760010 -17.395839 -4.724547 -52.002729 -27.933963 32.586807 -24.679852 -77.770248 29.880620 3.388678 -16.955857 -15.505449 0.279653 11.705184 -2.372519 9.854042 10.684743 -0.592616 88.823761 82.256594 80.312045 0.423254 17.899000 -12.271336 
0.347209 0.178629 0.999622 90.665279 1.407086 91.800361 6.075489 4.313722 1.806608 -3.461580 -2.108720 -5.575135 -1.993453 7.649001 -2.776959 0.000000 -0.000000 0.000000 -4.471937 -6.682712 -0.336101 0.986630 -2.540447 -0.021240 6.768777 -6.881338 -3.986319 0.000000 -0.000000 0.000000 -9.520145 2.377899 -8.569727 -2.149519 -5.045317 16.022247 -1.474447 3.783542 -5.748608 -6.713604 -15.510978 18.373165 18.080502 -4.212445 4.491299 -11.938595 -19.828347 -4.950315 -54.214816 -29.183295 33.559078 -21.468361 -75.383151 29.335636 1.882247 -18.348755 -12.434304 -3.715783 12.546195 -3.610845 6.161734 10.970371 -3.887308 83.499905 82.318105 77.623900 0.885943 19.794038 -6.676042 
